<?xml version="1.0" encoding="utf-8"?>
<!-- Generator: Adobe Illustrator 26.1.0, SVG Export Plug-In . SVG Version: 6.00 Build 0)  -->
<svg version="1.1" id="Group_198" xmlns="http://www.w3.org/2000/svg" xmlns:xlink="http://www.w3.org/1999/xlink" x="0px" y="0px"
	 viewBox="0 0 296.1 215.5" style="enable-background:new 0 0 296.1 215.5;" xml:space="preserve">
<path id="Path_1" d="M19.5,0v8.6h67v67h-13V17.3h-8.6v67h30.3V8.6h41.1v17.3h8.6V8.6h62.7v8.6h-17.3v84.3h8.6V25.9h25.9v58.4H268
	v92.9h28.1V0H19.5z M216.2,8.6h71.3v160h-10.8V75.7h-43.2V17.3h-17.3L216.2,8.6L216.2,8.6z M0,0v194.5h296.1v-8.6h-62.7v-47.6h8.6
	v-8.6h-8.6v-28.1h17.3v75.7h8.6V93h-34.6v92.9h-80v-69.2h21.6v21.6h-13v38.9H190v-60.5h17.3v13h-8.6v8.6h8.6v38.9h8.6V108h-34.6
	v60.5h-19.5V147h13v-38.9h-38.9v77.8h-32.4v-93h-30v75.7H28.1V92.9h13v-8.6H19.5v92.9h62.7v-75.6h13v84.3H8.6V0H0z M272.4,17.3
	h-30.3V67H281v-8.6h-30.3V47.6h13V39h-13V26h21.6v23.8h8.6V17.3H272.4z M162.1,17.3h-8.6v41.1h21.6V93h-13V67h-8.6v25.9h-8.6V34.6
	h-8.6V93h-25.9v8.7h8.6v75.7h8.6v-75.7h56.2v-52h-21.6V25.9h21.6v-8.6H162.1z M118.9,17.3h-17.3v8.6h8.6v58.4h8.6V25.9h10.8v-8.6
	H118.9z M47.6,17.3H19.5v58.4h8.6V54h19.5v47.6H39v8.6h25.9v-8.6h-8.6V17.3H47.6z M28.1,25.9h19.5v19.5H28.1V25.9z M207.5,101.6h8.6
	V32.4h-8.6V101.6z M38.9,116.7V160h25.9v-8.6H47.6v-13h17.3v-8.6H47.6v-13L38.9,116.7z"/>
<g id="Group_197" transform="translate(0.002 203.057)">
	<path id="Path_84" d="M5.1,0.2H3.3L0,12.1h1.3l1-3.8h3.9l1.1,3.8h1.3L5.1,0.2z M5.9,7.3H2.6L4.2,1l0,0L5.9,7.3z M27.9,0.2h-1.3v7.3
		c0,1.8-0.1,3.6-2.5,3.6s-2.5-1.8-2.5-3.6V0.2h-1.3v8.1c0,3.2,2.1,4,3.8,4s3.8-0.8,3.8-4V0.2z M47.7,0.2h-7.6v1.1h3.2v10.8h1.3V1.3
		h3.2V0.2H47.7z M61.1,0.2h-1.3v11.9h1.3V0.2z M81.3,3.1c-0.3-1.7-1.8-3-3.5-3.1c-1.8-0.1-3.3,1.2-3.4,3c0,0.1,0,0.1,0,0.2
		c0,4,5.8,2.6,5.8,5.9c0,1.2-1,2.2-2.2,2.2l0,0c-1.5-0.1-2.7-1.2-2.9-2.6L73.8,9c0.3,2,2,3.4,4,3.4c1.8,0.1,3.4-1.2,3.5-3
		c0-0.1,0-0.2,0-0.3c0-4.2-5.8-3-5.8-6c0-1.1,1-2,2.1-2c1.5,0,2.1,1.1,2.5,2.4L81.3,3.1z M95.2,1.4L95.2,1.4l2.9,10.8h1L102,1.4l0,0
		v10.8h1.3v-12h-2.1L98.7,10l0,0l-2.6-9.8H94v11.9h1.3V1.4H95.2z M122.7,0.2h-6.4v11.9h6.8V11h-5.5V6.4h3.7v-1h-3.7v-4h5.2
		L122.7,0.2L122.7,0.2z M158.9,3.6c-0.4-2-1.6-3.6-3.7-3.6c-2.5,0-4.3,2.3-4.3,6.2s1.8,6.2,4.3,6.2c2.1,0,3.4-1.6,3.7-3.5l-1.2-0.3
		c-0.3,1.4-1,2.8-2.6,2.8S152,9.8,152,6.2s1.4-5.2,3.1-5.2c1.6,0,2.2,1.5,2.6,2.8L158.9,3.6z M178.1,0.2h-6.4v11.9h6.8V11H173V6.4
		h3.7v-1H173v-4h5.2L178.1,0.2z M192.4,1.3L192.4,1.3l5.5,10.8h1.3V0.2h-1.3v9.4l0,0l-4.7-9.4h-2v11.9h1.2V1.3z M218.9,0.2h-7.6v1.1
		h3.2v10.8h1.3V1.3h3.2L218.9,0.2L218.9,0.2z M231.1,0.2v11.9h1.3V6.8h2.4l2.2,5.3h1.4L236,6.6c1.3-0.4,2.2-1.6,2.2-3
		s-0.6-3.3-4.3-3.3L231.1,0.2z M232.4,1.3h1.9c1.7,0,2.7,0.6,2.7,2.2c0,1.1-0.5,2.2-2.9,2.2h-1.7V1.3z M255,0.2h-1.8l-3.3,11.9h1.3
		l1-3.8h3.9l1.1,3.8h1.3L255,0.2z M255.7,7.3h-3.2L254,1l0,0L255.7,7.3z M274.5,0.2h-1.8l-3.3,11.9h1.3l1-3.8h3.9l1.1,3.8h1.3
		L274.5,0.2z M275.2,7.3H272l1.6-6.2l0,0L275.2,7.3z M291.1,0.2h-1.3v11.9h6.3V11H291V0.2H291.1z"/>
</g>
</svg>
