<svg xmlns="http://www.w3.org/2000/svg" id="Layer_2" data-name="Layer 2" viewBox="0 0 234.33 142.38"><defs><style>      .cls-1 {        fill: #436658;      }      .cls-2 {        fill: #6fb19b;      }    </style></defs><g id="Layer_1-2" data-name="Layer 1"><g><path class="cls-1" d="M0,111.25v-.65l2.85-.46v-22.42L0,87.29v-.68H9.11v.68l-2.85,.43v22.79H15.53l2.54-6.78h.84v7.52H0Z"></path><path class="cls-1" d="M20.55,111.25v-.62l2.17-.31v-14.08l-2.17-.31v-.62h5.27v15l2.17,.31v.62h-7.44Zm1.8-20.12c-.41-.4-.62-.89-.62-1.46s.2-1.06,.6-1.45,.9-.58,1.5-.58c.56,0,1.03,.2,1.43,.58,.39,.39,.59,.87,.59,1.45s-.2,1.06-.59,1.46-.87,.6-1.43,.6-1.07-.2-1.49-.6h.01Z"></path><path class="cls-1" d="M29.48,110.63l2.17-.31v-14.11l-2.17-.31v-.62h5.27v3.33c.76-1.11,1.66-1.99,2.7-2.63,1.03-.65,2.15-.97,3.35-.97,1.49,0,2.66,.37,3.52,1.11s1.29,1.84,1.29,3.3v10.9l2.17,.31v.62h-7.13v-.62l1.86-.31v-10.84c0-1.07-.22-1.89-.65-2.48-.43-.59-1.11-.88-2.02-.88s-1.87,.34-2.74,1.03c-.88,.69-1.66,1.54-2.34,2.54v10.63l1.86,.31v.62h-7.13v-.62h0Z"></path><path class="cls-1" d="M53.19,110.52c-1.12-.69-1.98-1.65-2.6-2.9-.62-1.24-.93-2.7-.93-4.36s.31-3.12,.93-4.36,1.49-2.2,2.6-2.88c1.12-.68,2.41-1.02,3.88-1.02,1.2,0,2.24,.31,3.13,.94,.89,.63,1.59,1.48,2.11,2.57v-11l-2.17-.31v-.62h5.27v23.72l2.17,.31v.62h-5.27v-3.2c-.52,1.09-1.22,1.95-2.11,2.57-.89,.63-1.93,.94-3.13,.94-1.47,0-2.76-.34-3.88-1.03h0Zm6.65-.51c.73-.52,1.32-1.22,1.77-2.09,.44-.87,.68-1.82,.7-2.85v-3.54c-.02-1.03-.25-1.98-.7-2.85-.44-.87-1.03-1.57-1.77-2.09-.73-.52-1.56-.79-2.46-.79-2.87,0-4.31,1.98-4.31,5.94v3.08c0,3.98,1.44,5.98,4.31,5.98,.91,0,1.73-.26,2.46-.79h0Z"></path><path class="cls-1" d="M70.92,110.52c-.85-.69-1.27-1.71-1.27-3.07,0-1.93,.82-3.3,2.45-4.11s3.52-1.22,5.67-1.22h2.08v-2.37c0-1.07-.12-1.89-.36-2.48-.24-.58-.6-1-1.1-1.23s-1.17-.35-2.01-.35c-.97,0-1.7,.19-2.17,.57-.48,.38-.71,.89-.71,1.52s.29,.99,.87,1.17c0,.51-.2,.96-.59,1.35s-.86,.59-1.4,.59c-.58,0-1.04-.16-1.4-.48s-.53-.81-.53-1.46c0-1.19,.6-2.15,1.8-2.87,1.2-.72,2.7-1.08,4.49-1.08,4.13,0,6.2,1.79,6.2,5.36v8.81c0,.45,.1,.8,.29,1.03,.2,.24,.48,.35,.85,.35,.35,0,.63-.12,.84-.35,.21-.24,.31-.56,.31-.97h.65c0,.72-.23,1.28-.7,1.69-.46,.41-1.11,.62-1.94,.62-.95,0-1.75-.27-2.4-.82-.65-.54-.99-1.39-1.01-2.54-.5,1.05-1.26,1.87-2.28,2.46s-2.15,.89-3.39,.89c-1.32,0-2.41-.34-3.25-1.03v.02Zm6.69-.82c.59-.33,1.09-.81,1.5-1.43,.41-.63,.66-1.38,.74-2.26v-3.2h-2.08c-1.7,0-2.96,.38-3.8,1.12s-1.26,1.8-1.26,3.16c0,1.13,.27,1.93,.81,2.4s1.32,.71,2.36,.71c.56,0,1.13-.17,1.72-.49h.01Z"></path><path class="cls-1" d="M97.2,110.54c-.82-.68-1.22-1.76-1.22-3.23v-11.09l-2.2-.31v-.62h2.2v-2.56l3.1-.77v3.33h4.03v.62l-4.03,.31v11.03c0,2.18,.79,3.27,2.36,3.27,.33,0,.65-.05,.95-.15,.3-.1,.54-.21,.71-.31,.18-.1,.28-.17,.33-.22l.4,.49c-.93,.82-2.05,1.23-3.35,1.23s-2.45-.34-3.27-1.02h-.01Z"></path><path class="cls-1" d="M108.4,110.52c-1.24-.69-2.22-1.66-2.95-2.91-.72-1.25-1.08-2.7-1.08-4.34s.36-3.08,1.07-4.33c.71-1.24,1.67-2.21,2.88-2.9s2.56-1.03,4.04-1.03c1.3,0,2.47,.29,3.5,.86,1.03,.58,1.84,1.37,2.42,2.39s.88,2.18,.9,3.5h-11.41v3.05c0,1.81,.41,3.27,1.22,4.39,.82,1.12,2,1.68,3.55,1.68,1.43,0,2.69-.4,3.78-1.2s1.77-1.84,2.01-3.11h.71c-.29,1.52-1.02,2.73-2.2,3.63-1.18,.9-2.62,1.35-4.31,1.35-1.53,0-2.91-.34-4.15-1.03h.02Zm7.38-9.53c0-1.79-.28-3.12-.84-3.99-.56-.87-1.43-1.31-2.6-1.31-1.39,0-2.46,.48-3.22,1.45-.77,.96-1.2,2.25-1.3,3.85h7.96Z"></path><path class="cls-1" d="M121.27,110.63l2.17-.31v-14.11l-2.17-.31v-.62h5.27v3.33c.76-1.11,1.66-1.99,2.7-2.63,1.03-.65,2.15-.97,3.35-.97,1.49,0,2.66,.37,3.52,1.11s1.29,1.84,1.29,3.3v10.9l2.17,.31v.62h-7.13v-.62l1.86-.31v-10.84c0-1.07-.22-1.89-.65-2.48-.43-.59-1.11-.88-2.01-.88s-1.87,.34-2.74,1.03c-.88,.69-1.66,1.54-2.34,2.54v10.63l1.86,.31v.62h-7.13v-.62h-.02Z"></path><path class="cls-1" d="M148.76,110.6l2.85-.46v-22.42l-2.85-.43v-.68h9.46c2.23,0,4.01,.21,5.33,.62s2.28,1.03,2.88,1.86,.9,1.93,.9,3.28c0,2.96-1.88,4.85-5.64,5.67v.15c2.29,.31,4.08,.99,5.35,2.03,1.27,1.05,1.91,2.51,1.91,4.37,0,2.26-.83,3.93-2.5,5.02-1.66,1.09-3.91,1.63-6.74,1.63h-10.94v-.65h-.01Zm9.7-12.65c1.65,0,2.92-.46,3.81-1.39,.89-.92,1.33-2.24,1.33-3.94v-.18c0-3.37-1.8-5.05-5.39-5.05h-3.19v10.57h3.44Zm1.24,12.56c1.76,0,3.12-.51,4.09-1.52,.97-1.02,1.46-2.47,1.46-4.36v-.34c0-1.87-.48-3.26-1.44-4.19-.96-.92-2.33-1.39-4.11-1.39h-4.68v11.8s4.68,0,4.68,0Z"></path><path class="cls-1" d="M173.32,110.52c-.85-.69-1.27-1.71-1.27-3.07,0-1.93,.82-3.3,2.45-4.11,1.63-.81,3.52-1.22,5.67-1.22h2.08v-2.37c0-1.07-.12-1.89-.36-2.48-.24-.58-.6-1-1.1-1.23s-1.17-.35-2.02-.35c-.97,0-1.7,.19-2.17,.57-.48,.38-.71,.89-.71,1.52s.29,.99,.87,1.17c0,.51-.2,.96-.59,1.35s-.86,.59-1.4,.59c-.58,0-1.04-.16-1.4-.48s-.53-.81-.53-1.46c0-1.19,.6-2.15,1.8-2.87s2.7-1.08,4.5-1.08c4.13,0,6.2,1.79,6.2,5.36v8.81c0,.45,.1,.8,.29,1.03,.2,.24,.48,.35,.85,.35,.35,0,.63-.12,.84-.35,.21-.24,.31-.56,.31-.97h.65c0,.72-.23,1.28-.7,1.69-.46,.41-1.11,.62-1.94,.62-.95,0-1.75-.27-2.4-.82-.65-.54-.99-1.39-1.01-2.54-.5,1.05-1.26,1.87-2.28,2.46s-2.15,.89-3.39,.89c-1.32,0-2.41-.34-3.25-1.03v.02Zm6.69-.82c.59-.33,1.09-.81,1.5-1.43,.41-.63,.66-1.38,.74-2.26v-3.2h-2.08c-1.7,0-2.96,.38-3.8,1.12s-1.26,1.8-1.26,3.16c0,1.13,.27,1.93,.81,2.4s1.32,.71,2.36,.71c.56,0,1.13-.17,1.72-.49h0Z"></path><path class="cls-1" d="M189.03,110.63l2.17-.31v-14.11l-2.17-.31v-.62h5.27v2.37c1.3-1.77,2.77-2.65,4.4-2.65,.79,0,1.48,.2,2.08,.6s.9,.97,.9,1.71c0,.53-.18,.98-.53,1.34s-.82,.54-1.4,.54c-.66,0-1.2-.26-1.61-.77,.23-.29,.34-.59,.34-.92,0-.35-.12-.63-.36-.85s-.55-.32-.95-.32c-.43,0-.88,.2-1.33,.6-.46,.4-.97,1.02-1.55,1.86v11.52l2.48,.31v.62h-7.75v-.62h.01Z"></path><path class="cls-1" d="M217.74,95.91c-.6,.58-1.55,.94-2.85,1.11,.54,.78,.8,1.85,.8,3.2,0,1.6-.57,2.86-1.72,3.79-1.15,.92-2.6,1.39-4.36,1.39-.72,0-1.38-.06-1.98-.18-1.32,.08-1.98,.6-1.98,1.54,0,.53,.22,.92,.67,1.17,.44,.25,1.15,.37,2.12,.37h3.47c1.67,0,2.92,.34,3.74,1.02s1.22,1.84,1.22,3.48c0,1.15-.29,2.21-.88,3.17-.59,.96-1.44,1.73-2.56,2.29s-2.45,.85-4,.85c-2.34,0-4.06-.35-5.16-1.05-1.11-.7-1.66-1.62-1.66-2.77,0-.7,.27-1.31,.81-1.85s1.27-.8,2.2-.8c.19,0,.57,.04,1.15,.12-.64,.68-.96,1.48-.96,2.4s.31,1.65,.93,2.31c.62,.66,1.63,.99,3.04,.99,1.22,0,2.31-.23,3.27-.69s1.7-1.06,2.22-1.8,.78-1.5,.78-2.28c0-.86-.28-1.48-.84-1.86s-1.55-.57-2.98-.57h-3.78c-1.45,0-2.54-.28-3.27-.85-.73-.57-1.1-1.4-1.1-2.51,0-.74,.21-1.39,.64-1.96,.42-.56,.96-.93,1.63-1.09-1.8-.76-2.7-2.3-2.7-4.62,0-1.62,.57-2.9,1.71-3.82s2.56-1.39,4.28-1.39c2.17,0,3.74,.45,4.71,1.36,.58-.1,1.01-.29,1.3-.57,.29-.28,.43-.59,.43-.94,0-.33-.09-.58-.28-.75s-.4-.26-.65-.26c0-.45,.17-.85,.51-1.19s.75-.51,1.22-.51c.52,0,.94,.15,1.27,.46s.5,.72,.5,1.23c0,.8-.3,1.49-.9,2.06h0Zm-4.96,3.54c0-1.25-.26-2.22-.79-2.9s-1.32-1.02-2.37-1.02c-2.05,0-3.07,1.3-3.07,3.91v1.51c0,1.21,.25,2.17,.76,2.86,.51,.7,1.28,1.05,2.31,1.05s1.84-.35,2.37-1.05c.53-.7,.79-1.65,.79-2.86v-1.51h0Z"></path><path class="cls-1" d="M223.54,110.52c-1.24-.69-2.22-1.66-2.95-2.91-.72-1.25-1.08-2.7-1.08-4.34s.36-3.08,1.07-4.33c.71-1.24,1.67-2.21,2.88-2.9s2.56-1.03,4.05-1.03c1.3,0,2.47,.29,3.5,.86,1.03,.58,1.84,1.37,2.42,2.39s.88,2.18,.9,3.5h-11.41v3.05c0,1.81,.41,3.27,1.22,4.39,.82,1.12,2,1.68,3.55,1.68,1.43,0,2.69-.4,3.78-1.2,1.09-.8,1.77-1.84,2.01-3.11h.71c-.29,1.52-1.02,2.73-2.2,3.63-1.18,.9-2.61,1.35-4.31,1.35-1.53,0-2.91-.34-4.15-1.03h0Zm7.38-9.53c0-1.79-.28-3.12-.84-3.99-.56-.87-1.43-1.31-2.6-1.31-1.38,0-2.46,.48-3.22,1.45-.76,.96-1.2,2.25-1.3,3.85h7.96Z"></path></g><path class="cls-2" d="M117.43,0c-29.4-.14-53.34,23.57-53.49,52.96-.05,9.61,2.46,18.64,6.87,26.44h.02c.1-.04,.2-.09,.3-.13,.51-.22,1.03-.45,1.56-.68,.16-.07,.32-.14,.48-.21,.49-.21,.97-.43,1.47-.65,.15-.06,.3-.13,.44-.2,.5-.23,1.01-.45,1.52-.69,.33-.15,.67-.31,1.01-.46,.35-.16,.7-.32,1.06-.48,.21-.1,.43-.2,.64-.3,.47-.22,.94-.44,1.42-.66,.32-.15,.65-.31,.98-.46,.37-.18,.75-.35,1.12-.53,.34-.16,.69-.33,1.03-.5,.35-.17,.71-.34,1.06-.52,.38-.18,.75-.37,1.13-.56,.32-.16,.65-.32,.97-.48,.37-.18,.73-.37,1.09-.56,.33-.17,.66-.33,.99-.5,.29-.15,.58-.3,.87-.46,.39-.21,.79-.41,1.18-.62,.27-.14,.53-.29,.79-.43,.4-.22,.81-.43,1.21-.65,.37-.2,.72-.41,1.08-.61,.29-.16,.58-.32,.86-.48,.44-.25,.86-.5,1.29-.75,.19-.11,.4-.23,.59-.34,.55-.32,1.08-.65,1.6-.97,.06-.04,.13-.08,.19-.12,.41-.26,.8-.51,1.2-.76,.17-.11,.35-.22,.51-.33,.37-.24,.72-.49,1.08-.73,.17-.12,.35-.23,.52-.35,.3-.21,.58-.42,.87-.63,.2-.15,.41-.3,.61-.44,.24-.18,.45-.35,.68-.53,.22-.18,.46-.35,.67-.53,.22-.18,.41-.36,.62-.54,.19-.17,.4-.34,.58-.5,.23-.21,.43-.42,.64-.62,.13-.13,.28-.26,.4-.39,.21-.22,.38-.43,.57-.64,.1-.12,.22-.24,.31-.35,.15-.18,.26-.36,.39-.54,.1-.14,.22-.29,.31-.43,.11-.17,.18-.33,.27-.5,.08-.14,.17-.29,.23-.43,.08-.18,.12-.36,.18-.53,.04-.12,.09-.25,.12-.36,.03-.16,.03-.32,.04-.47,0-.13,.04-.26,.03-.38,0-.15-.05-.3-.08-.45-.02-.12-.03-.25-.07-.37-.05-.15-.14-.28-.22-.42-.06-.11-.1-.23-.18-.34-.09-.12-.22-.24-.32-.35-.11-.12-.2-.25-.33-.36-.12-.11-.29-.2-.43-.31-.16-.12-.31-.24-.5-.36-.14-.08-.31-.16-.46-.23-.63-.33-1.35-.64-2.24-.92-.55-.17-1.15-.33-1.81-.48-3.18-.72-6.46-1.53-9.63-2.42-10.89-3.04-20.54-6.97-20.69-11.49,0-.19,0-.38,.03-.57,.06-.38,.18-.76,.38-1.15,.3-.58,.76-1.17,1.4-1.77,.43-.4,.93-.8,1.53-1.21,1.19-.81,2.71-1.64,4.62-2.47,1.43-.63,3.07-1.26,4.94-1.9,.62-.21,1.27-.43,1.95-.64,1.35-.43,2.81-.86,4.37-1.29,1.56-.43,3.24-.87,5.03-1.31,2.83-.69,5.96-1.4,9.39-2.1,3.98-.82,8.37-1.65,13.2-2.48,.38-.07,.77-.13,1.16-.2,7.8-1.32,16.71-2.66,26.88-4.01h0s-.93,.2-2.45,.55c-.19,.04-.39,.09-.59,.14-.67,.16-1.44,.34-2.29,.55-.28,.07-.56,.14-.85,.21-.87,.22-1.81,.46-2.8,.72-.36,.09-.72,.19-1.09,.29-2.35,.64-4.92,1.38-7.52,2.21-1.27,.41-2.55,.83-3.8,1.28-1.98,.7-3.92,1.45-5.7,2.23-1.75,.77-3.33,1.58-4.7,2.41-.74,.45-1.43,.9-2.01,1.36-.65,.51-1.15,1.03-1.57,1.55-.21,.26-.39,.53-.54,.79-.31,.57-.51,1.14-.49,1.72,.02,.69,.3,1.39,.88,2.08,1.74,2.08,6.17,4.16,14.45,6.13,13.38,3.18,26.76,8.94,34.01,17.12,.03,.03,.06,.07,.09,.1,2.38,2.71,4.08,5.69,4.9,8.93,0,.04,.02,.08,.03,.12,.12,.48,.21,.97,.28,1.47,0,.07,.03,.13,.04,.2,.07,.49,.11,.99,.14,1.49,0,.07,.02,.14,.02,.22,.08,1.67-.08,3.4-.5,5.19-.02,.07-.02,.13-.04,.2-.45,1.86-1.17,3.79-2.2,5.78h.09c4.49-7.76,7.08-16.76,7.13-26.37C170.57,24.09,146.86,.15,117.47,0h-.04Z"></path><g><path class="cls-1" d="M43.73,135.71c-1.13-.73-2-1.74-2.61-3.04-.61-1.3-.92-2.8-.92-4.5s.32-3.2,.97-4.5,1.55-2.31,2.72-3.04c1.16-.73,2.5-1.09,4-1.09,1.42,0,2.62,.36,3.6,1.07l1.26-1.07h.43v5.09h-.43l-1.36-3.39c-.99-.82-2.16-1.23-3.49-1.23-.96,0-1.83,.25-2.59,.74s-1.36,1.21-1.8,2.16c-.43,.95-.65,2.07-.65,3.37v3.76c0,1.3,.2,2.42,.61,3.37,.41,.94,.97,1.67,1.69,2.17,.72,.5,1.57,.75,2.53,.75,1.18,0,2.1-.36,2.76-1.09,.65-.72,.98-1.7,.98-2.92v-1.91l-1.92-.29v-.45h6.18v.45l-1.92,.29v1.91c0,.78-.21,1.51-.64,2.19s-1.1,1.23-2,1.65c-.91,.42-2.05,.64-3.43,.64-1.5,0-2.82-.36-3.95-1.09h-.02Z"></path><path class="cls-1" d="M56.57,136.38v-.49l9.67-15.42h-6.41l-2.13,4.11h-.54l.5-4.62h11.37v.51l-9.69,15.42h7.23l2.13-4.42h.54l-.5,4.91h-12.17Z"></path><path class="cls-1" d="M70.97,131.11v-.68h4.53v.68h-4.53Z"></path><path class="cls-1" d="M77.67,135.95l1.9-.31v-14.95l-1.9-.29v-.45h6.49c2.04,0,3.55,.43,4.55,1.29s1.49,2.11,1.49,3.74-.5,2.88-1.49,3.74-2.51,1.29-4.55,1.29h-2.31v5.63l1.9,.31v.43h-6.08v-.43h0Zm6.2-6.43c2.55,0,3.82-1.38,3.82-4.13v-.82c0-2.74-1.27-4.11-3.82-4.11h-2.03v9.06h2.03Z"></path><path class="cls-1" d="M92.7,135.87c-.76-.48-1.14-1.1-1.14-1.87,0-.4,.11-.71,.32-.93,.21-.23,.5-.34,.86-.34,.28,0,.51,.07,.7,.21,.19,.14,.33,.33,.41,.58-.3,.33-.45,.68-.45,1.05,0,.42,.19,.79,.58,1.11s.9,.47,1.55,.47c.87,0,1.58-.2,2.13-.59,.55-.39,.83-.91,.83-1.57,0-.38-.12-.67-.35-.86-.23-.19-.69-.41-1.36-.66l-3.12-1.13c-1.23-.44-1.84-1.25-1.84-2.44,0-.97,.34-1.77,1.01-2.39,.67-.62,1.6-.93,2.79-.93,.98,0,1.81,.22,2.51,.67,.7,.45,1.04,1.08,1.04,1.9,0,.33-.09,.59-.27,.79s-.41,.3-.7,.3-.53-.08-.71-.24c-.19-.16-.28-.37-.28-.65,.18-.14,.3-.28,.37-.44s.1-.35,.1-.56c0-.38-.17-.7-.51-.95-.34-.25-.86-.37-1.56-.37-.61,0-1.13,.09-1.56,.28-.43,.18-.76,.43-.98,.73s-.33,.61-.33,.92,.12,.59,.36,.78,.69,.4,1.33,.64l2.89,1.03c.67,.25,1.18,.59,1.53,1.03,.34,.44,.52,1.01,.52,1.7,0,1-.32,1.83-.95,2.49s-1.6,.99-2.89,.99c-1.13,0-2.07-.24-2.83-.72v-.03Z"></path><path class="cls-1" d="M101.11,141.85c-.44-.36-.66-.84-.66-1.44,0-.41,.12-.74,.36-1,.24-.25,.54-.38,.9-.38,.26,0,.5,.05,.7,.16,.21,.11,.37,.27,.5,.49-.21,.29-.31,.59-.31,.9,0,.27,.09,.5,.27,.68s.41,.27,.68,.27c.33,0,.62-.11,.86-.33s.46-.6,.65-1.15l1.24-3.53-4.79-10.14-1.38-.21v-.41h5.15v.41l-1.45,.25,3.45,7.33,2.46-7.06-1.78-.51v-.41h3.72v.41l-1.41,.51-4.63,13.37c-.29,.81-.64,1.4-1.04,1.77-.41,.37-.99,.55-1.75,.55-.72,0-1.29-.18-1.74-.53Z"></path><path class="cls-1" d="M114.68,135.9c-.81-.46-1.46-1.11-1.93-1.95s-.71-1.8-.71-2.88c0-1.14,.25-2.12,.75-2.96,.5-.83,1.16-1.47,1.97-1.9s1.69-.65,2.62-.65c.79,0,1.5,.13,2.15,.4s1.16,.64,1.54,1.12,.57,1.02,.57,1.62c0,.45-.12,.8-.35,1.04-.23,.24-.54,.36-.93,.36s-.68-.12-.93-.37-.37-.55-.37-.92c.21-.14,.35-.29,.43-.45s.12-.37,.12-.62c0-.51-.2-.92-.61-1.24s-.95-.48-1.62-.48c-.99,0-1.75,.35-2.28,1.06-.53,.71-.79,1.69-.79,2.97v2.05c0,1.22,.26,2.2,.78,2.94s1.28,1.11,2.3,1.11c.94,0,1.75-.26,2.45-.79s1.13-1.22,1.29-2.08h.47c-.19,1.01-.67,1.82-1.44,2.42-.77,.6-1.69,.9-2.78,.9-.99,0-1.89-.23-2.71-.69h0Z"></path><path class="cls-1" d="M122.89,135.97l1.45-.21v-15.2l-1.45-.21v-.41h3.51v8.01c.51-.74,1.11-1.32,1.8-1.76,.69-.43,1.43-.65,2.23-.65,.99,0,1.77,.25,2.35,.74s.86,1.23,.86,2.2v7.27l1.45,.21v.41h-4.75v-.41l1.24-.21v-7.23c0-.71-.15-1.26-.43-1.65-.29-.39-.74-.58-1.34-.58s-1.24,.23-1.83,.69-1.11,1.02-1.56,1.69v7.08l1.24,.21v.41h-4.75v-.41h-.02Z"></path><path class="cls-1" d="M138.99,135.9c-.81-.46-1.46-1.11-1.93-1.95s-.71-1.8-.71-2.88,.24-2.04,.71-2.88,1.12-1.48,1.93-1.94,1.71-.69,2.71-.69,1.89,.23,2.71,.69c.81,.46,1.46,1.11,1.93,1.94,.47,.83,.71,1.79,.71,2.88s-.24,2.04-.71,2.88c-.48,.84-1.12,1.49-1.93,1.95-.81,.46-1.71,.69-2.71,.69s-1.89-.23-2.71-.69Zm5.01-.87c.52-.74,.78-1.72,.78-2.94v-2.05c0-1.22-.26-2.19-.78-2.93s-1.29-1.1-2.3-1.1-1.79,.37-2.3,1.1c-.52,.73-.77,1.71-.77,2.93v2.05c0,1.22,.26,2.2,.77,2.94,.52,.74,1.29,1.11,2.3,1.11s1.79-.37,2.3-1.11Z"></path><path class="cls-1" d="M148.35,136.38v-.41l1.55-.21v-15.2l-1.55-.21v-.41h3.62v15.81l1.45,.21v.41h-5.07Z"></path><path class="cls-1" d="M157.38,135.9c-.81-.46-1.46-1.11-1.93-1.95-.47-.84-.71-1.8-.71-2.88s.24-2.04,.71-2.88c.48-.83,1.12-1.48,1.93-1.94s1.72-.69,2.71-.69,1.89,.23,2.71,.69c.81,.46,1.46,1.11,1.93,1.94,.48,.83,.71,1.79,.71,2.88s-.24,2.04-.71,2.88c-.47,.84-1.12,1.49-1.93,1.95-.81,.46-1.72,.69-2.71,.69s-1.89-.23-2.71-.69Zm5.01-.87c.52-.74,.77-1.72,.77-2.94v-2.05c0-1.22-.26-2.19-.77-2.93s-1.29-1.1-2.3-1.1-1.79,.37-2.3,1.1c-.52,.73-.78,1.71-.78,2.93v2.05c0,1.22,.26,2.2,.78,2.94s1.28,1.11,2.3,1.11,1.79-.37,2.3-1.11Z"></path><path class="cls-1" d="M169.86,135.9c-.81-.46-1.46-1.11-1.93-1.95-.47-.84-.71-1.8-.71-2.88s.24-2.04,.71-2.88c.48-.83,1.12-1.48,1.93-1.94s1.72-.69,2.71-.69,1.89,.23,2.71,.69c.81,.46,1.46,1.11,1.93,1.94,.48,.83,.71,1.79,.71,2.88s-.24,2.04-.71,2.88c-.47,.84-1.12,1.49-1.93,1.95-.81,.46-1.72,.69-2.71,.69s-1.89-.23-2.71-.69Zm5.01-.87c.52-.74,.77-1.72,.77-2.94v-2.05c0-1.22-.26-2.19-.77-2.93s-1.29-1.1-2.3-1.1-1.79,.37-2.3,1.1c-.52,.73-.78,1.71-.78,2.93v2.05c0,1.22,.26,2.2,.78,2.94s1.28,1.11,2.3,1.11,1.79-.37,2.3-1.11Z"></path><path class="cls-1" d="M189.37,126.16c-.4,.38-1.03,.63-1.9,.74,.36,.52,.54,1.23,.54,2.14,0,1.07-.38,1.91-1.15,2.53s-1.73,.92-2.9,.92c-.48,0-.92-.04-1.32-.12-.88,.06-1.32,.4-1.32,1.03,0,.36,.15,.62,.45,.78s.77,.25,1.42,.25h2.31c1.12,0,1.95,.23,2.49,.68,.54,.45,.82,1.23,.82,2.32,0,.77-.2,1.47-.59,2.12s-.96,1.15-1.71,1.53c-.74,.38-1.63,.56-2.67,.56-1.56,0-2.7-.23-3.44-.7-.74-.46-1.11-1.08-1.11-1.85,0-.47,.18-.88,.54-1.23,.36-.36,.85-.53,1.47-.53,.12,0,.38,.03,.76,.08-.43,.45-.64,.99-.64,1.6s.21,1.1,.62,1.54c.41,.44,1.09,.66,2.03,.66,.81,0,1.54-.15,2.18-.46,.64-.31,1.13-.71,1.48-1.2,.34-.49,.52-1,.52-1.52,0-.58-.19-.99-.56-1.24s-1.03-.38-1.98-.38h-2.52c-.96,0-1.69-.19-2.18-.56-.49-.38-.73-.93-.73-1.67,0-.49,.14-.93,.42-1.3,.28-.38,.64-.62,1.08-.73-1.2-.51-1.8-1.53-1.8-3.08,0-1.08,.38-1.93,1.14-2.55s1.71-.92,2.85-.92c1.45,0,2.49,.3,3.14,.9,.39-.07,.68-.19,.87-.38,.19-.18,.29-.39,.29-.63,0-.22-.06-.39-.19-.5s-.27-.17-.43-.17c0-.3,.11-.56,.34-.79s.5-.34,.82-.34c.34,0,.63,.1,.85,.31s.33,.48,.33,.82c0,.53-.2,.99-.6,1.38l-.02-.04Zm-3.31,2.36c0-.83-.18-1.48-.53-1.93s-.88-.68-1.58-.68c-1.36,0-2.05,.87-2.05,2.61v1.01c0,.81,.17,1.44,.51,1.91s.85,.7,1.54,.7,1.23-.23,1.58-.7c.35-.46,.53-1.1,.53-1.91v-1.01h0Z"></path></g></g></svg>